<svg width="141" height="33" viewBox="0 0 141 33" fill="none" xmlns="http://www.w3.org/2000/svg">
<path d="M61.2 14.9L67.8 8.1H63.2L56.3 15.4V7.9H52.5V24.8H56.3V20L58.6 17.6L63.6 24.8H68L61.2 14.9Z" fill="#010021"/>
<path d="M72.9 21C73.8 21.7 74.8 22.1 76 22.1C76.9 22.1 77.8 21.9 78.4 21.6C79.1 21.3 79.8 20.8 80.4 20.1L82.6 22.1C82 23 81 23.7 79.9 24.3C78.8 24.9 77.5 25.1 76 25.1C74.8 25.1 73.7 24.9 72.7 24.5C71.7 24.1 70.8 23.5 70 22.7C69.2 21.9 68.6 21 68.2 20C67.8 18.9 67.5 17.8 67.5 16.5C67.5 15.3 67.7 14.2 68.1 13.1C68.5 12.1 69.1 11.1 69.8 10.4C70.5 9.59999 71.4 9 72.4 8.5C73.4 8 74.5 7.8 75.7 7.8C77 7.8 78.2 8 79.2 8.5C80.2 9 81 9.59999 81.7 10.4C82.4 11.2 82.9 12.2 83.2 13.3C83.5 14.4 83.7 15.5 83.7 16.7C83.7 16.9 83.7 17 83.7 17.2C83.7 17.4 83.7 17.5 83.7 17.7H71.3C71.5 19.2 72 20.2 72.9 21ZM79.7 15.3C79.6 14.7 79.5 14.1 79.3 13.6C79.1 13.1 78.8 12.6 78.5 12.2C78.1 11.8 77.7 11.5 77.2 11.3C76.7 11.1 76.1 11 75.5 11C74.3 11 73.4 11.4 72.6 12.2C71.8 13 71.4 14.1 71.2 15.4H79.7V15.3Z" fill="#010021"/>
<path d="M89.6 24.8H85.8V8.2H89.6V11.9C90.1 10.6 90.9 9.6 91.8 8.9C92.8 8.1 94 7.8 95.4 7.9V11.9H95.2C94.4 11.9 93.6 12 92.9 12.3C92.2 12.6 91.6 13 91.1 13.5C90.6 14 90.2 14.7 89.9 15.6C89.6 16.4 89.5 17.4 89.5 18.5V24.8H89.6Z" fill="#010021"/>
<path d="M97.4 8.2V19.9C97.4 20.5 97.2 20.9 96.9 21.1C96.6 21.3 96.1 21.4 95.6 21.4C95.3 21.4 94.9 21.4 94.5 21.3V24.7C94.8 24.7 95.1 24.8 95.4 24.8C95.7 24.8 96 24.8 96.4 24.8C98 24.8 99.2 24.5 100 23.9C100.8 23.3 101.2 22.3 101.2 21V8.2H97.4Z" fill="#010021"/>
<path d="M120.7 19.8C120.2 20.8 119.6 21.8 118.8 22.5C118 23.2 117.1 23.9 116 24.4C114.9 24.9 113.7 25.1 112.5 25.1C111.2 25.1 110.1 24.9 109 24.4C107.9 24 107 23.3 106.2 22.5C105.4 21.7 104.8 20.8 104.4 19.8C104 18.8 103.7 17.6 103.7 16.5C103.7 15.4 103.9 14.2 104.4 13.1C104.8 12 105.5 11.1 106.3 10.3C107.1 9.5 108 8.9 109.1 8.4C110.2 7.9 111.4 7.7 112.6 7.7C113.9 7.7 115.1 7.9 116.1 8.4C117.2 8.9 118.1 9.5 118.9 10.3C119.7 11.1 120.3 12 120.7 13C121.1 14 121.4 15.2 121.4 16.4C121.3 17.7 121.1 18.8 120.7 19.8ZM117.1 14.5C116.9 13.9 116.5 13.3 116.1 12.8C115.7 12.3 115.1 11.9 114.5 11.6C113.9 11.3 113.2 11.2 112.5 11.2C111.8 11.2 111.1 11.3 110.5 11.6C109.9 11.9 109.4 12.3 108.9 12.7C108.5 13.2 108.1 13.7 107.9 14.4C107.7 15 107.6 15.7 107.6 16.5C107.6 17.2 107.7 17.9 108 18.6C108.2 19.3 108.6 19.8 109 20.3C109.4 20.8 110 21.2 110.6 21.4C111.2 21.7 111.9 21.8 112.6 21.8C113.4 21.8 114.1 21.7 114.7 21.4C115.3 21.1 115.8 20.7 116.3 20.3C116.7 19.8 117.1 19.3 117.3 18.6C117.5 18 117.6 17.3 117.6 16.5C117.5 15.8 117.4 15.1 117.1 14.5Z" fill="#010021"/>
<path d="M139.7 19.8C139.2 20.8 138.6 21.8 137.8 22.5C137 23.2 136.1 23.9 135 24.4C133.9 24.9 132.7 25.1 131.5 25.1C130.2 25.1 129.1 24.9 128 24.4C126.9 24 126 23.3 125.2 22.5C124.4 21.7 123.8 20.8 123.4 19.8C123 18.8 122.7 17.6 122.7 16.5C122.7 15.4 122.9 14.2 123.4 13.1C123.8 12 124.5 11.1 125.3 10.3C126.1 9.5 127 8.9 128.1 8.4C129.2 7.9 130.4 7.7 131.6 7.7C132.9 7.7 134.1 7.9 135.1 8.4C136.2 8.9 137.1 9.5 137.9 10.3C138.7 11.1 139.3 12 139.7 13C140.1 14 140.4 15.2 140.4 16.4C140.4 17.7 140.2 18.8 139.7 19.8ZM136.2 14.5C136 13.9 135.6 13.3 135.2 12.8C134.8 12.3 134.2 11.9 133.6 11.6C133 11.3 132.3 11.2 131.6 11.2C130.9 11.2 130.2 11.3 129.6 11.6C129 11.9 128.5 12.3 128 12.7C127.6 13.2 127.2 13.7 127 14.4C126.8 15 126.7 15.7 126.7 16.5C126.7 17.2 126.8 17.9 127.1 18.6C127.3 19.3 127.7 19.8 128.1 20.3C128.5 20.8 129.1 21.2 129.7 21.4C130.3 21.7 131 21.8 131.7 21.8C132.5 21.8 133.2 21.7 133.8 21.4C134.4 21.1 134.9 20.7 135.4 20.3C135.8 19.8 136.2 19.3 136.4 18.6C136.6 18 136.7 17.3 136.7 16.5C136.6 15.8 136.4 15.1 136.2 14.5Z" fill="#010021"/>
<path opacity="0.8" d="M35.7 0.299999C34.5 0.299999 33.4 0.599999 32.4 1.2L31.9 1.6L27.7 4.5L27.4 4.7C26.6 2.2 24.2 0.399999 21.4 0.399999C17.9 0.399999 15.1 3.2 15.1 6.7V16.5C15.1 20 17.9 22.8 21.4 22.8C22.5 22.8 23.5 22.5 24.4 22L25.4 21.3L27.6 19.8L38.5 12.3L39.9 11.3C41.2 10.1 42 8.5 42 6.6C42.1 3.1 39.2 0.299999 35.7 0.299999Z" fill="#51B74A"/>
<path opacity="0.8" d="M35.6 32.8C34.4 32.8 33.3 32.5 32.3 31.9L31.8 31.5L27.6 28.6L27.3 28.4C26.5 30.9 24.1 32.7 21.3 32.7C17.8 32.7 15 29.9 15 26.4V16.6C15 13.1 17.8 10.3 21.3 10.3C22.4 10.3 23.4 10.6 24.3 11.1L25.3 11.8L27.5 13.3L38.4 20.8L39.8 21.8C41.1 23 41.9 24.6 41.9 26.5C42 29.9 39.1 32.8 35.6 32.8Z" fill="#51B74A"/>
<path opacity="0.58" d="M27.4 26.6C27.4 30 24.6 32.8 21.2 32.8C21 32.8 20.7 32.8 20.5 32.8C17.4 32.5 15 29.8 15 26.7V6.5C15 3.3 17.5 0.599998 20.6 0.399998C20.8 0.399998 21 0.399998 21.1 0.399998C24.5 0.399998 27.3 3.2 27.3 6.6C27.4 6.7 27.4 26.4 27.4 26.6Z" fill="#008CC1"/>
<path opacity="0.8" d="M6.60001 23C10.1899 23 13.1 20.0899 13.1 16.5C13.1 12.9101 10.1899 10 6.60001 10C3.01016 10 0.100006 12.9101 0.100006 16.5C0.100006 20.0899 3.01016 23 6.60001 23Z" fill="#51B74A"/>
</svg>
